# xmcd
#
# Track frame offsets: 
#        150
#        14638
#        29533
#        44845
#        58039
#        70476
#        84399
#        99225
#        114250
#        128010
#        142537
#        158160
#        170660
#        184357
#        197560
#        213160
#        228072
#        242520
#        256440
#        269995
#        284650
#        299025
#
# Disc length: 4179 seconds
#
# Revision: 0
# Processed by: cddbd v1.5.2PL0 Copyright (c) Steve Scherf et al.
# Submitted via: ExactAudioCopyFreeDBPlugin 1.0
#
DISCID=4e105116
DTITLE=Smith, Bessie - Bessie Smith
DYEAR=1925
DGENRE=
TTITLE0=That Thing Called Love
TTITLE1=You Can't Keep a Good Man Down
TTITLE2=Crazy Blues
TTITLE3=It's Right Here for You
TTITLE4=Fare Thee Honey Blues
TTITLE5=The Road Is Rocky
TTITLE6=Mem'ries of You Mammy
TTITLE7=If You Don't Want Me Blues
TTITLE8=Dont' Care Blues
TTITLE9=Frankie Blues
TTITLE10=Down Hearted Blues
TTITLE11=Graveyard Dream Blues
TTITLE12=Far Away Blues
TTITLE13=I'm Going Back to My Used to Be
TTITLE14=Any Woman's Blues
TTITLE15=Chicago Bound Blues
TTITLE16=St. Louis Blues
TTITLE17=Wreckless Blues
TTITLE18=Sobbin' Hearted Blues
TTITLE19=Cold in Hand Blues
TTITLE20=Cake Walkin' Babies from Home
TTITLE21=Dixie Flyer Blues
EXTD=
EXTT0=
EXTT1=
EXTT2=
EXTT3=
EXTT4=
EXTT5=
EXTT6=
EXTT7=
EXTT8=
EXTT9=
EXTT10=
EXTT11=
EXTT12=
EXTT13=
EXTT14=
EXTT15=
EXTT16=
EXTT17=
EXTT18=
EXTT19=
EXTT20=
EXTT21=
PLAYORDER=
